<svg width="150" height="40" viewBox="0 0 150 40" fill="none" xmlns="http://www.w3.org/2000/svg">
<path d="M148.924 35.2679C148.924 37.3839 147.02 39.0979 144.664 39.0979H5.25445C2.9 39.0979 0.988892 37.3839 0.988892 35.2679V4.72489C0.988892 2.60989 2.9 0.889893 5.25445 0.889893H144.663C147.02 0.889893 148.923 2.60989 148.923 4.72489L148.924 35.2679Z" fill="black"/>
<path d="M53.3111 10.2881C53.3466 10.9951 53.06 11.6841 52.5166 12.1951C51.9089 12.7631 51.0611 13.0711 50.1855 13.0431C48.3433 13.0301 46.8611 11.6751 46.8755 10.0171C46.8833 9.23209 47.23 8.48109 47.8455 7.92409C48.4611 7.35909 49.3078 7.04909 50.1855 7.06609C50.6333 7.06509 51.0766 7.14609 51.4889 7.30409C51.8722 7.44309 52.2133 7.66209 52.4844 7.94309L51.9222 8.44809C51.4933 7.99009 50.85 7.73909 50.1855 7.77109C48.8278 7.76509 47.7222 8.75009 47.7155 9.97209C47.7155 10.0011 47.7166 10.0301 47.7166 10.0591C47.6978 11.3011 48.8022 12.3231 50.1822 12.3401C50.8433 12.3491 51.48 12.1221 51.9544 11.7081C52.2811 11.3911 52.4689 10.9781 52.4855 10.5451H50.1866V9.85909H53.2689C53.2978 10.0011 53.3111 10.1441 53.3111 10.2881Z" fill="white" stroke="white" stroke-width="0.2" stroke-miterlimit="10"/>
<path d="M58.1633 7.9052H55.3033V9.7172H57.91V10.4032H55.3033V12.2152H58.1633V12.9212H54.4556V7.2002H58.1633V7.9052Z" fill="white" stroke="white" stroke-width="0.2" stroke-miterlimit="10"/>
<path d="M61.6377 12.9192H60.8222V7.9052H59.0411V7.2002H63.4589V7.9052H61.6366L61.6377 12.9192Z" fill="white" stroke="white" stroke-width="0.2" stroke-miterlimit="10"/>
<path d="M66.5733 12.9192V7.2002H67.3889V12.9202H66.5733V12.9192Z" fill="white" stroke="white" stroke-width="0.2" stroke-miterlimit="10"/>
<path d="M71.0111 12.9192H70.1966V7.9052H68.4166V7.2002H72.7811V7.9052H71.0111V12.9192Z" fill="white" stroke="white" stroke-width="0.2" stroke-miterlimit="10"/>
<path d="M81.0533 12.1761C79.7644 13.3301 77.6822 13.3301 76.3933 12.1761C75.1433 10.9861 75.1433 9.12408 76.3933 7.93308C77.67 6.77508 79.75 6.76808 81.0366 7.91808C81.0422 7.92308 81.0489 7.92808 81.0544 7.93308C82.3089 9.12208 82.3089 10.9871 81.0533 12.1761ZM76.9966 11.6991C77.9511 12.5541 79.4944 12.5541 80.4489 11.6991C81.3878 10.7691 81.3878 9.34908 80.4489 8.41908C79.4944 7.56408 77.9511 7.56408 76.9966 8.41908C76.0589 9.35008 76.0589 10.7691 76.9966 11.6991Z" fill="white" stroke="white" stroke-width="0.2" stroke-miterlimit="10"/>
<path d="M83.14 12.9192V7.2002H84.1356L87.2278 11.6522V10.5472V7.2002H88.0434V12.9202H87.1956L83.9645 8.2582V9.3632V12.9192H83.14Z" fill="white" stroke="white" stroke-width="0.2" stroke-miterlimit="10"/>
<path d="M75.2589 21.2612C72.7733 21.2722 70.7667 23.0952 70.7789 25.3322C70.7911 27.5692 72.8156 29.3752 75.3022 29.3642C77.7789 29.3542 79.7811 27.5432 79.7811 25.3122C79.8167 23.1072 77.86 21.2922 75.4078 21.2602C75.3589 21.2612 75.3089 21.2612 75.2589 21.2612ZM75.2589 27.7722C73.7544 27.8682 72.4478 26.8452 72.3422 25.4902C72.2367 24.1362 73.3722 22.9602 74.8767 22.8662C76.3833 22.7702 77.6889 23.7932 77.7944 25.1472C77.7989 25.2022 77.8011 25.2572 77.8011 25.3122C77.8711 26.6062 76.7633 27.7062 75.3256 27.7692C75.3044 27.7712 75.2822 27.7722 75.2589 27.7722ZM65.3978 21.2612C62.9111 21.2672 60.9 23.0852 60.9067 25.3232C60.9122 27.5612 62.9322 29.3702 65.4189 29.3652C67.9011 29.3602 69.91 27.5482 69.91 25.3132C69.9455 23.1082 67.9889 21.2932 65.5367 21.2612C65.4867 21.2612 65.4367 21.2612 65.3867 21.2612H65.3978ZM65.3978 27.7722C63.8922 27.8732 62.5822 26.8552 62.47 25.5012C62.3589 24.1472 63.4889 22.9672 64.9944 22.8672C66.4989 22.7662 67.8089 23.7832 67.9211 25.1382C67.9256 25.1962 67.9289 25.2542 67.9289 25.3122C67.9989 26.6062 66.8911 27.7062 65.4533 27.7692C65.43 27.7712 65.4078 27.7722 65.3855 27.7722H65.3978ZM53.65 22.5112V24.2272H58.2267C58.1555 25.0352 57.7811 25.7972 57.1678 26.3902C56.2411 27.2402 54.96 27.6972 53.64 27.6492C50.8322 27.6492 48.5555 25.6002 48.5555 23.0732C48.5555 20.5462 50.8322 18.4972 53.64 18.4972C54.9289 18.4782 56.1744 18.9202 57.1033 19.7262L58.4489 18.5162C57.1822 17.3622 55.4522 16.7192 53.65 16.7332C49.7855 16.5972 46.5322 19.3072 46.3811 22.7842C46.2311 26.2622 49.2411 29.1912 53.1067 29.3262C53.2878 29.3332 53.4689 29.3332 53.65 29.3262C55.4844 29.4012 57.2655 28.7582 58.5344 27.5632C59.6433 26.4652 60.2367 25.0222 60.1867 23.5402C60.19 23.1782 60.1544 22.8172 60.08 22.4622L53.65 22.5112ZM101.644 23.8452C101.08 22.3482 99.5456 21.3202 97.7889 21.2612C95.45 21.2572 93.5489 22.9612 93.5433 25.0682C93.5433 25.1502 93.5467 25.2312 93.5522 25.3132C93.5 27.5032 95.4289 29.3172 97.8622 29.3652C97.9155 29.3662 97.9689 29.3662 98.0233 29.3652C99.5278 29.3732 100.938 28.6992 101.773 27.5732L100.237 26.6202C99.77 27.3192 98.93 27.7472 98.0233 27.7452C97.0844 27.7772 96.2189 27.2902 95.8411 26.5162L101.869 24.2752L101.644 23.8452ZM95.5022 25.1982C95.4133 23.9732 96.4433 22.9172 97.8033 22.8372C97.82 22.8362 97.8356 22.8352 97.8533 22.8342C98.5511 22.7932 99.21 23.1312 99.5267 23.6922L95.5022 25.1982ZM90.6078 29.1262H92.5889V17.2092H90.6078V29.1262ZM87.3678 22.1672H87.2933C86.6889 21.5602 85.8267 21.2132 84.92 21.2142C82.4311 21.3222 80.51 23.2272 80.6322 25.4672C80.7444 27.5562 82.6 29.2252 84.92 29.3262C85.8278 29.3412 86.6978 28.9912 87.2933 28.3732H87.3567V28.9542C87.3567 30.5092 86.4356 31.3382 84.9533 31.3382C83.9433 31.3172 83.0467 30.7482 82.6867 29.8992L80.9589 30.5472C81.6244 32.0032 83.2044 32.9492 84.9533 32.9402C87.2722 32.9402 89.1889 31.7102 89.1889 28.7172V21.5002H87.3678V22.1672ZM85.1 27.7722C83.5911 27.6532 82.4755 26.4552 82.6078 25.0962C82.7244 23.9032 83.7755 22.9572 85.1 22.8532C86.5033 22.9172 87.58 23.9942 87.5089 25.2552C87.5078 25.2742 87.5067 25.2932 87.5044 25.3122C87.6222 26.5612 86.5944 27.6592 85.2067 27.7662C85.1678 27.7682 85.1289 27.7712 85.09 27.7722H85.1ZM110.924 17.2092H106.19V29.1262H108.17V24.6072H110.934C113.204 24.7532 115.176 23.2172 115.34 21.1732C115.502 19.1312 113.794 17.3552 111.526 17.2092C111.328 17.1962 111.131 17.1962 110.934 17.2092H110.924ZM110.924 22.9302H108.16V18.8682H110.967C112.222 18.8682 113.239 19.7842 113.239 20.9132C113.239 22.0432 112.222 22.9582 110.967 22.9582L110.924 22.9302ZM123.138 21.2142C121.664 21.1342 120.279 21.8502 119.61 23.0342L121.369 23.6922C121.722 23.1042 122.429 22.7602 123.169 22.8152C124.214 22.7052 125.162 23.3782 125.284 24.3202C125.286 24.3312 125.287 24.3412 125.287 24.3492V24.4742C124.651 24.1702 123.941 24.0132 123.222 24.0152C121.327 24.0152 119.409 24.9692 119.409 26.6952C119.486 28.2162 120.917 29.3912 122.607 29.3212C122.634 29.3202 122.663 29.3182 122.692 29.3172C123.709 29.3812 124.683 28.9442 125.234 28.1722H125.299V29.1252H127.204V24.5402C127.204 22.4532 125.447 21.2422 123.19 21.2422L123.138 21.2142ZM122.893 27.7442C122.248 27.7442 121.348 27.4492 121.348 26.7332C121.348 25.7802 122.47 25.4652 123.466 25.4652C124.094 25.4512 124.717 25.5892 125.266 25.8642C125.129 26.9322 124.139 27.7452 122.946 27.7712L122.893 27.7442ZM134.154 21.5002L131.888 26.6672H131.823L129.471 21.5002H127.353L130.881 28.7262L128.868 32.7402H130.933L136.357 21.5012L134.154 21.5002ZM116.348 29.1262H118.329V17.2092H116.348V29.1262Z" fill="white"/>
<path d="M14.1411 7.71397C13.7944 8.08697 13.6211 8.56397 13.6533 9.04797V30.136C13.6222 30.62 13.7955 31.098 14.1411 31.471L14.2144 31.537L27.3389 19.735V19.459L14.2144 7.64697L14.1411 7.71397Z" fill="url(#paint0_linear_157_264)"/>
<path d="M31.6822 23.6732L27.3389 19.7362V19.4602L31.6822 15.5132L31.7778 15.5602L36.9789 18.2202C38.4622 18.9732 38.4622 20.2122 36.9789 20.9752L31.7989 23.6252L31.6822 23.6732Z" fill="url(#paint1_linear_157_264)"/>
<path d="M31.8089 23.616L27.3389 19.593L14.1411 31.472C14.7644 31.965 15.69 31.989 16.3433 31.53L31.82 23.617" fill="url(#paint2_linear_157_264)"/>
<path d="M31.8089 15.569L16.3322 7.65705C15.6789 7.19705 14.7522 7.22105 14.13 7.71505L27.3389 19.593L31.8089 15.569Z" fill="url(#paint3_linear_157_264)"/>
<path opacity="0.2" d="M31.6822 23.5291L16.3333 31.3951C15.7067 31.8181 14.8433 31.8181 14.2155 31.3951L14.1422 31.4611L14.2155 31.5281C14.8422 31.9531 15.7078 31.9531 16.3333 31.5281L31.81 23.6151L31.6822 23.5291Z" fill="black"/>
<path opacity="0.12" d="M14.1411 31.3382C13.7944 30.9662 13.6211 30.4882 13.6533 30.0032V30.1472C13.6222 30.6312 13.7955 31.1092 14.1411 31.4812L14.2144 31.4152L14.1411 31.3382Z" fill="black"/>
<path opacity="0.12" d="M36.9778 20.832L31.6811 23.529L31.7766 23.616L36.9778 20.965C37.5778 20.711 37.9822 20.188 38.0366 19.593C37.9166 20.131 37.5244 20.59 36.9778 20.832Z" fill="black"/>
<path opacity="0.25" d="M16.3322 7.79116L36.9778 18.3542C37.5244 18.5972 37.9167 19.0552 38.0367 19.5932C37.9822 18.9972 37.5778 18.4742 36.9778 18.2202L16.3322 7.65716C14.85 6.90416 13.6422 7.53316 13.6422 9.05916V9.20216C13.6744 7.66716 14.8611 7.03816 16.3322 7.79116Z" fill="white"/>
<defs>
<linearGradient id="paint0_linear_157_264" x1="26.1794" y1="8.83371" x2="10.2702" y2="26.5105" gradientUnits="userSpaceOnUse">
<stop stop-color="#00A0FF"/>
<stop offset="0.01" stop-color="#00A1FF"/>
<stop offset="0.26" stop-color="#00BEFF"/>
<stop offset="0.51" stop-color="#00D2FF"/>
<stop offset="0.76" stop-color="#00DFFF"/>
<stop offset="1" stop-color="#00E3FF"/>
</linearGradient>
<linearGradient id="paint1_linear_157_264" x1="38.9208" y1="19.5964" x2="13.292" y2="19.5964" gradientUnits="userSpaceOnUse">
<stop stop-color="#FFE000"/>
<stop offset="0.41" stop-color="#FFBD00"/>
<stop offset="0.78" stop-color="#FFA500"/>
<stop offset="1" stop-color="#FF9C00"/>
</linearGradient>
<linearGradient id="paint2_linear_157_264" x1="29.3847" y1="21.7847" x2="7.80418" y2="45.7525" gradientUnits="userSpaceOnUse">
<stop stop-color="#FF3A44"/>
<stop offset="1" stop-color="#C31162"/>
</linearGradient>
<linearGradient id="paint3_linear_157_264" x1="10.8169" y1="0.703862" x2="20.4489" y2="11.4059" gradientUnits="userSpaceOnUse">
<stop stop-color="#32A071"/>
<stop offset="0.07" stop-color="#2DA771"/>
<stop offset="0.48" stop-color="#15CF74"/>
<stop offset="0.8" stop-color="#06E775"/>
<stop offset="1" stop-color="#00F076"/>
</linearGradient>
</defs>
</svg>
