<svg width="148" height="39" viewBox="0 0 148 39" fill="none" xmlns="http://www.w3.org/2000/svg">
<path d="M147.936 34.378C147.936 36.494 146.031 38.208 143.676 38.208H4.26556C1.91111 38.208 0 36.494 0 34.378V3.835C0 1.72 1.91111 0 4.26556 0H143.674C146.031 0 147.934 1.72 147.934 3.835L147.936 34.378Z" fill="black"/>
<path d="M32.4867 18.8938C32.4545 15.6708 35.4189 14.1028 35.5545 14.0298C33.8756 11.8268 31.2734 11.5258 30.3589 11.5018C28.1734 11.2948 26.0534 12.6788 24.94 12.6788C23.8045 12.6788 22.09 11.5218 20.2422 11.5558C17.8645 11.5888 15.64 12.8278 14.42 14.7518C11.9022 18.6748 13.78 24.4398 16.1922 27.6108C17.3989 29.1648 18.8089 30.8978 20.6545 30.8368C22.46 30.7708 23.1345 29.8018 25.3134 29.8018C27.4722 29.8018 28.1056 30.8368 29.9878 30.7978C31.9256 30.7708 33.1456 29.2378 34.31 27.6708C35.7045 25.8918 36.2645 24.1378 36.2867 24.0478C36.2411 24.0338 32.5234 22.7558 32.4867 18.8938Z" fill="white"/>
<path d="M28.9312 9.4159C29.9023 8.3229 30.5667 6.8359 30.3823 5.3269C28.9767 5.3829 27.2189 6.2019 26.2067 7.2709C25.3112 8.2129 24.5112 9.7569 24.7178 11.2089C26.2967 11.3149 27.9178 10.4919 28.9312 9.4159Z" fill="white"/>
<path d="M58.6167 30.6142H56.0934L54.7111 26.7062H49.9067L48.59 30.6142H46.1334L50.8934 17.3062H53.8334L58.6167 30.6142ZM54.2945 25.0652L53.0445 21.5902C52.9123 21.2352 52.6645 20.3992 52.2989 19.0832H52.2545C52.1089 19.6492 51.8745 20.4852 51.5522 21.5902L50.3245 25.0652H54.2945Z" fill="white"/>
<path d="M70.8578 25.6981C70.8578 27.3311 70.3678 28.6201 69.3878 29.5671C68.51 30.4101 67.42 30.8311 66.1189 30.8311C64.7145 30.8311 63.7056 30.3781 63.0911 29.4701H63.0467V34.5251H60.6778V24.1761C60.6778 23.1511 60.6478 22.0981 60.59 21.0181H62.6734L62.8056 22.5391H62.85C63.64 21.3931 64.8389 20.8201 66.4478 20.8201C67.7056 20.8201 68.7556 21.2671 69.5956 22.1621C70.4378 23.0591 70.8578 24.2371 70.8578 25.6981ZM68.4445 25.7761C68.4445 24.8421 68.2111 24.0721 67.7422 23.4651C67.23 22.8341 66.5422 22.5181 65.68 22.5181C65.0956 22.5181 64.5645 22.6941 64.09 23.0411C63.6145 23.3911 63.3034 23.8481 63.1578 24.4141C63.0845 24.6781 63.0478 24.8931 63.0478 25.0631V26.6641C63.0478 27.3611 63.2856 27.9501 63.7611 28.4321C64.2367 28.9121 64.8545 29.1531 65.6145 29.1531C66.5067 29.1531 67.2011 28.8421 67.6978 28.2251C68.1956 27.6061 68.4445 26.7901 68.4445 25.7761Z" fill="white"/>
<path d="M83.1212 25.6981C83.1212 27.3311 82.6312 28.6201 81.65 29.5671C80.7734 30.4101 79.6834 30.8311 78.3823 30.8311C76.9778 30.8311 75.9689 30.3781 75.3556 29.4701H75.3112V34.5251H72.9423V24.1761C72.9423 23.1511 72.9123 22.0981 72.8545 21.0181H74.9378L75.0701 22.5391H75.1145C75.9034 21.3931 77.1023 20.8201 78.7112 20.8201C79.9678 20.8201 81.0178 21.2671 81.8601 22.1621C82.7001 23.0591 83.1212 24.2371 83.1212 25.6981ZM80.7078 25.7761C80.7078 24.8421 80.4734 24.0721 80.0045 23.4651C79.4923 22.8341 78.8067 22.5181 77.9434 22.5181C77.3578 22.5181 76.8278 22.6941 76.3523 23.0411C75.8767 23.3911 75.5667 23.8481 75.4212 24.4141C75.3489 24.6781 75.31 24.8931 75.31 25.0631V26.6641C75.31 27.3611 75.5478 27.9501 76.0223 28.4321C76.4978 28.9111 77.1145 29.1531 77.8778 29.1531C78.7701 29.1531 79.4645 28.8421 79.9612 28.2251C80.4589 27.6061 80.7078 26.7901 80.7078 25.7761Z" fill="white"/>
<path d="M96.8323 26.881C96.8323 28.014 96.3956 28.935 95.5189 29.646C94.5556 30.422 93.2145 30.811 91.4912 30.811C89.8989 30.811 88.6245 30.535 87.6589 29.982L88.2078 28.206C89.2478 28.771 90.3889 29.056 91.6323 29.056C92.5245 29.056 93.2189 28.874 93.7178 28.511C94.2145 28.15 94.4623 27.663 94.4623 27.058C94.4623 26.518 94.2578 26.063 93.8478 25.694C93.44 25.325 92.7589 24.982 91.8078 24.666C89.2189 23.797 87.9256 22.523 87.9256 20.85C87.9256 19.756 88.3789 18.859 89.2867 18.161C90.1912 17.462 91.3978 17.113 92.9067 17.113C94.2523 17.113 95.3701 17.324 96.2623 17.745L95.6712 19.483C94.8378 19.075 93.8945 18.871 92.84 18.871C92.0067 18.871 91.3556 19.056 90.8889 19.424C90.4956 19.753 90.2978 20.154 90.2978 20.63C90.2978 21.155 90.5223 21.591 90.9756 21.933C91.37 22.248 92.0867 22.591 93.1278 22.96C94.4012 23.421 95.3334 23.96 95.9345 24.577C96.5334 25.191 96.8323 25.962 96.8323 26.881Z" fill="white"/>
<path d="M104.664 22.618H102.053V27.277C102.053 28.462 102.513 29.053 103.436 29.053C103.859 29.053 104.21 29.021 104.488 28.955L104.553 30.573C104.087 30.73 103.472 30.809 102.711 30.809C101.776 30.809 101.044 30.552 100.517 30.038C99.99 29.524 99.7267 28.663 99.7267 27.451V22.614H98.1711V21.014H99.7267V19.257L102.053 18.625V21.014H104.664V22.618Z" fill="white"/>
<path d="M116.446 25.737C116.446 27.212 115.977 28.423 115.04 29.37C114.059 30.345 112.757 30.831 111.133 30.831C109.569 30.831 108.323 30.364 107.394 29.431C106.466 28.496 106.001 27.318 106.001 25.897C106.001 24.41 106.48 23.192 107.438 22.245C108.393 21.297 109.684 20.823 111.308 20.823C112.872 20.823 114.131 21.291 115.081 22.225C115.992 23.131 116.446 24.301 116.446 25.737ZM113.988 25.805C113.988 24.92 113.779 24.161 113.353 23.529C112.857 22.762 112.146 22.382 111.227 22.382C110.274 22.382 109.55 22.765 109.054 23.529C108.628 24.163 108.419 24.934 108.419 25.846C108.419 26.731 108.628 27.49 109.054 28.121C109.567 28.887 110.281 29.269 111.207 29.269C112.11 29.269 112.82 28.878 113.333 28.101C113.768 27.458 113.988 26.69 113.988 25.805Z" fill="white"/>
<path d="M124.146 22.8931C123.911 22.8541 123.661 22.8341 123.399 22.8341C122.566 22.8341 121.921 23.1161 121.468 23.6841C121.073 24.1841 120.876 24.8161 120.876 25.5791V30.6141H118.508L118.53 24.0401C118.53 22.9351 118.501 21.9271 118.441 21.0191H120.504L120.591 22.8551H120.657C120.908 22.2241 121.301 21.7151 121.841 21.3341C122.369 20.9911 122.939 20.8201 123.553 20.8201C123.772 20.8201 123.97 20.8341 124.146 20.8591V22.8931Z" fill="white"/>
<path d="M134.74 25.3619C134.74 25.7439 134.712 26.0659 134.653 26.3289H127.547C127.574 27.2769 127.918 28.0029 128.578 28.5029C129.177 28.9489 129.951 29.1729 130.903 29.1729C131.954 29.1729 132.917 29.0229 133.779 28.7199L134.15 30.1989C133.141 30.5949 131.951 30.7919 130.576 30.7919C128.922 30.7919 127.624 30.3539 126.679 29.4799C125.737 28.6049 125.266 27.4289 125.266 25.9569C125.266 24.5099 125.706 23.3049 126.584 22.3439C127.504 21.3179 128.747 20.8049 130.311 20.8049C131.848 20.8049 133.012 21.3179 133.802 22.3439C134.426 23.1569 134.74 24.1649 134.74 25.3619ZM132.481 24.8089C132.497 24.1759 132.342 23.6309 132.021 23.1699C131.611 22.5759 130.981 22.2799 130.133 22.2799C129.359 22.2799 128.729 22.5689 128.248 23.1489C127.854 23.6099 127.62 24.1639 127.547 24.8069L132.481 24.8089Z" fill="white"/>
<path d="M53.5111 9.11905C53.5111 10.2961 53.1189 11.1821 52.3355 11.7771C51.61 12.3261 50.5789 12.6011 49.2433 12.6011C48.5811 12.6011 48.0144 12.5751 47.54 12.5231V6.09205C48.1589 6.00205 48.8255 5.95605 49.5455 5.95605C50.8178 5.95605 51.7766 6.20505 52.4233 6.70305C53.1478 7.26605 53.5111 8.07105 53.5111 9.11905ZM52.2833 9.14805C52.2833 8.38505 52.0589 7.80005 51.61 7.39205C51.1611 6.98505 50.5055 6.78105 49.6422 6.78105C49.2755 6.78105 48.9633 6.80305 48.7044 6.84905V11.7381C48.8478 11.7581 49.11 11.7671 49.4911 11.7671C50.3822 11.7671 51.07 11.5441 51.5544 11.0981C52.0389 10.6521 52.2833 10.0021 52.2833 9.14805Z" fill="white"/>
<path d="M60.0211 10.1469C60.0211 10.8719 59.7911 11.4659 59.3311 11.9319C58.8489 12.4109 58.21 12.6499 57.4122 12.6499C56.6433 12.6499 56.0311 12.4209 55.5744 11.9609C55.1189 11.5019 54.8911 10.9229 54.8911 10.2249C54.8911 9.49491 55.1256 8.89591 55.5967 8.43091C56.0678 7.96591 56.7011 7.73291 57.4989 7.73291C58.2678 7.73291 58.8856 7.96191 59.3533 8.42091C59.7978 8.86691 60.0211 9.44291 60.0211 10.1469ZM58.8133 10.1809C58.8133 9.74591 58.7089 9.37291 58.5011 9.06191C58.2567 8.68591 57.9089 8.49791 57.4567 8.49791C56.9889 8.49791 56.6333 8.68591 56.3889 9.06191C56.18 9.37291 56.0767 9.75191 56.0767 10.1999C56.0767 10.6349 56.1811 11.0079 56.3889 11.3189C56.6411 11.6949 56.9922 11.8829 57.4456 11.8829C57.89 11.8829 58.2389 11.6919 58.49 11.3089C58.7056 10.9919 58.8133 10.6159 58.8133 10.1809Z" fill="white"/>
<path d="M68.75 7.8291L67.1111 12.5431H66.0444L65.3655 10.4961C65.1933 9.9851 65.0533 9.4771 64.9444 8.9731H64.9233C64.8222 9.4911 64.6822 9.9981 64.5022 10.4961L63.7811 12.5431H62.7022L61.1611 7.8291H62.3577L62.95 10.0701C63.0933 10.6001 63.2111 11.1051 63.3055 11.5831H63.3266C63.4133 11.1891 63.5566 10.6871 63.7588 10.0801L64.5022 7.8301H65.4511L66.1633 10.0321C66.3355 10.5691 66.4755 11.0861 66.5833 11.5841H66.6155C66.6944 11.0991 66.8133 10.5821 66.9711 10.0321L67.6066 7.8301H68.75V7.8291Z" fill="white"/>
<path d="M74.7867 12.543H73.6222V9.84298C73.6222 9.01098 73.2711 8.59498 72.5667 8.59498C72.2211 8.59498 71.9422 8.70898 71.7256 8.93798C71.5111 9.16698 71.4022 9.43698 71.4022 9.74598V12.542H70.2378V9.17598C70.2378 8.76198 70.2233 8.31298 70.1956 7.82698H71.2189L71.2733 8.56398H71.3056C71.4411 8.33498 71.6433 8.14598 71.9089 7.99498C72.2244 7.81898 72.5778 7.72998 72.9644 7.72998C73.4533 7.72998 73.8589 7.87198 74.1822 8.15698C74.5856 8.50598 74.7867 9.02698 74.7867 9.71898V12.543Z" fill="white"/>
<path d="M77.9977 12.543H76.8344V5.66602H77.9977V12.543Z" fill="white"/>
<path d="M84.8533 10.1469C84.8533 10.8719 84.6233 11.4659 84.1633 11.9319C83.6811 12.4109 83.0411 12.6499 82.2444 12.6499C81.4744 12.6499 80.8622 12.4209 80.4067 11.9609C79.9511 11.5019 79.7233 10.9229 79.7233 10.2249C79.7233 9.49491 79.9578 8.89591 80.4289 8.43091C80.9011 7.96591 81.5333 7.73291 82.33 7.73291C83.1 7.73291 83.7167 7.96191 84.1867 8.42091C84.63 8.86691 84.8533 9.44291 84.8533 10.1469ZM83.6444 10.1809C83.6444 9.74591 83.54 9.37291 83.3322 9.06191C83.0889 8.68591 82.74 8.49791 82.29 8.49791C81.82 8.49791 81.4655 8.68591 81.2211 9.06191C81.0122 9.37291 80.91 9.75191 80.91 10.1999C80.91 10.6349 81.0144 11.0079 81.2211 11.3189C81.4744 11.6949 81.8256 11.8829 82.2778 11.8829C82.7222 11.8829 83.07 11.6919 83.3211 11.3089C83.5378 10.9919 83.6444 10.6159 83.6444 10.1809Z" fill="white"/>
<path d="M90.4889 12.5429H89.4433L89.3567 11.9999H89.3256C88.9678 12.4329 88.4578 12.6499 87.7944 12.6499C87.3011 12.6499 86.9 12.5069 86.6 12.2229C86.3267 11.9649 86.19 11.6439 86.19 11.2629C86.19 10.6869 86.4567 10.2479 86.9944 9.94391C87.5289 9.63991 88.2822 9.49091 89.2522 9.49791V9.40991C89.2522 8.78891 88.8911 8.47891 88.1644 8.47891C87.6478 8.47891 87.1922 8.59591 86.7989 8.82791L86.5611 8.13991C87.0478 7.86891 87.6489 7.73291 88.3578 7.73291C89.7267 7.73291 90.4133 8.38291 90.4133 9.68291V11.4189C90.4133 11.8899 90.4389 12.2649 90.4889 12.5429ZM89.28 10.9229V10.1959C87.9956 10.1759 87.3533 10.4929 87.3533 11.1459C87.3533 11.3919 87.4267 11.5759 87.5767 11.6989C87.7267 11.8219 87.9178 11.8829 88.1456 11.8829C88.4011 11.8829 88.64 11.8099 88.8578 11.6649C89.0767 11.5189 89.2111 11.3339 89.2611 11.1069C89.2733 11.0559 89.28 10.9939 89.28 10.9229Z" fill="white"/>
<path d="M97.1055 12.543H96.0722L96.0177 11.786H95.9855C95.6555 12.362 95.0933 12.65 94.3033 12.65C93.6722 12.65 93.1466 12.427 92.73 11.981C92.3133 11.535 92.1055 10.956 92.1055 10.245C92.1055 9.48202 92.3311 8.86402 92.7844 8.39201C93.2233 7.95201 93.7611 7.73202 94.4011 7.73202C95.1044 7.73202 95.5955 7.94502 95.8766 8.37202H95.8989V5.66602H97.0644V11.273C97.0644 11.732 97.0778 12.155 97.1055 12.543ZM95.8989 10.555V9.76902C95.8989 9.63302 95.8877 9.52302 95.8666 9.43902C95.8011 9.18702 95.66 8.97502 95.4455 8.80402C95.2289 8.63302 94.9677 8.54702 94.6666 8.54702C94.2322 8.54702 93.8922 8.70202 93.6422 9.01302C93.3944 9.32402 93.2689 9.72101 93.2689 10.206C93.2689 10.672 93.3877 11.05 93.6266 11.341C93.8789 11.651 94.2189 11.806 94.6444 11.806C95.0266 11.806 95.3322 11.677 95.5644 11.418C95.7889 11.179 95.8989 10.891 95.8989 10.555Z" fill="white"/>
<path d="M107.064 10.1469C107.064 10.8719 106.834 11.4659 106.374 11.9319C105.892 12.4109 105.254 12.6499 104.456 12.6499C103.688 12.6499 103.076 12.4209 102.618 11.9609C102.162 11.5019 101.934 10.9229 101.934 10.2249C101.934 9.49491 102.169 8.89591 102.64 8.43091C103.111 7.96591 103.744 7.73291 104.543 7.73291C105.311 7.73291 105.93 7.96191 106.397 8.42091C106.841 8.86691 107.064 9.44291 107.064 10.1469ZM105.858 10.1809C105.858 9.74591 105.753 9.37291 105.546 9.06191C105.3 8.68591 104.953 8.49791 104.5 8.49791C104.033 8.49791 103.679 8.68591 103.432 9.06191C103.223 9.37291 103.121 9.75191 103.121 10.1999C103.121 10.6349 103.226 11.0079 103.432 11.3189C103.686 11.6949 104.036 11.8829 104.489 11.8829C104.933 11.8829 105.283 11.6919 105.534 11.3089C105.749 10.9919 105.858 10.6159 105.858 10.1809Z" fill="white"/>
<path d="M113.326 12.543H112.162V9.84298C112.162 9.01098 111.811 8.59498 111.106 8.59498C110.76 8.59498 110.481 8.70898 110.266 8.93798C110.051 9.16698 109.942 9.43698 109.942 9.74598V12.542H108.777V9.17598C108.777 8.76198 108.763 8.31298 108.736 7.82698H109.758L109.812 8.56398H109.844C109.981 8.33498 110.183 8.14598 110.448 7.99498C110.764 7.81898 111.117 7.72998 111.504 7.72998C111.992 7.72998 112.399 7.87198 112.722 8.15698C113.126 8.50598 113.326 9.02698 113.326 9.71898V12.543Z" fill="white"/>
<path d="M121.162 8.61403H119.881V10.904C119.881 11.486 120.108 11.777 120.559 11.777C120.768 11.777 120.941 11.761 121.078 11.728L121.108 12.523C120.878 12.601 120.576 12.64 120.204 12.64C119.744 12.64 119.387 12.514 119.127 12.262C118.867 12.01 118.738 11.586 118.738 10.991V8.61403H117.972V7.82903H118.738V6.96503L119.879 6.65503V7.82803H121.161L121.162 8.61403Z" fill="white"/>
<path d="M127.327 12.543H126.161V9.86302C126.161 9.01802 125.81 8.59502 125.107 8.59502C124.567 8.59502 124.198 8.84002 123.996 9.33002C123.961 9.43302 123.941 9.55902 123.941 9.70702V12.542H122.778V5.66602H123.941V8.50702H123.963C124.33 7.99002 124.856 7.73202 125.537 7.73202C126.019 7.73202 126.418 7.87402 126.734 8.15902C127.129 8.51402 127.327 9.04202 127.327 9.74002V12.543Z" fill="white"/>
<path d="M133.686 9.96312C133.686 10.1511 133.67 10.3091 133.642 10.4381H130.15C130.166 10.9041 130.332 11.2591 130.656 11.5051C130.951 11.7251 131.331 11.8351 131.798 11.8351C132.316 11.8351 132.787 11.7611 133.21 11.6121L133.392 12.3401C132.897 12.5341 132.311 12.6311 131.634 12.6311C130.824 12.6311 130.184 12.4161 129.722 11.9861C129.258 11.5561 129.028 10.9791 129.028 10.2551C129.028 9.54412 129.242 8.95212 129.674 8.48012C130.126 7.97612 130.736 7.72412 131.506 7.72412C132.259 7.72412 132.831 7.97612 133.218 8.48012C133.531 8.88012 133.686 9.37512 133.686 9.96312ZM132.574 9.69212C132.583 9.38112 132.507 9.11312 132.349 8.88712C132.147 8.59612 131.839 8.45012 131.422 8.45012C131.042 8.45012 130.732 8.59212 130.496 8.87712C130.302 9.10412 130.188 9.37512 130.15 9.69212H132.574Z" fill="white"/>
</svg>
